<svg id="Componente_1_1" data-name="Componente 1 – 1" xmlns="http://www.w3.org/2000/svg" width="291" height="110" viewBox="0 0 291 110">
  <text id="ath_n" data-name="ath   n" transform="translate(0 87)" fill="#fff" font-size="90" font-family="Montserrat-Italic, Montserrat" font-style="italic"><tspan x="0" y="0" xml:space="preserve">ath   n</tspan></text>
  <path id="power-off-solid" d="M49.743,5.761a26.406,26.406,0,1,1-30.69.011,2.564,2.564,0,0,1,3.727.82l1.682,2.992a2.555,2.555,0,0,1-.7,3.3,17.888,17.888,0,1,0,21.287-.011,2.54,2.54,0,0,1-.692-3.29l1.682-2.992a2.552,2.552,0,0,1,3.706-.831ZM38.668,28.113V2.556A2.55,2.55,0,0,0,36.112,0H32.7a2.55,2.55,0,0,0-2.556,2.556V28.113A2.55,2.55,0,0,0,32.7,30.668h3.408A2.55,2.55,0,0,0,38.668,28.113Z" transform="translate(159.48 36.73)" fill="#fff"/>
</svg>
